<svg xmlns="http://www.w3.org/2000/svg" viewBox="0 0 192 192">
  <defs>
    <radialGradient id="glow" cx="50%" cy="22%" r="74%">
      <stop offset="0%" stop-color="#4a3610" />
      <stop offset="100%" stop-color="#070503" />
    </radialGradient>
    <linearGradient id="gold" x1="18%" y1="0%" x2="82%" y2="100%">
      <stop offset="0%" stop-color="#fff0a8" />
      <stop offset="46%" stop-color="#e4b447" />
      <stop offset="100%" stop-color="#8f5d13" />
    </linearGradient>
  </defs>
  <rect width="192" height="192" rx="44" fill="url(#glow)" />
  <path d="M96 24l54 18v42c0 39-22 68-54 84-32-16-54-45-54-84V42z" fill="none" stroke="url(#gold)" stroke-width="9" stroke-linejoin="round" />
  <path d="M101 54v12c13 2 22 10 22 22h-18c0-5-4-8-11-8-6 0-10 3-10 7 0 5 5 7 17 10 17 5 25 12 25 26 0 13-10 23-25 25v13H86v-13c-16-3-27-13-27-28h18c0 8 6 12 16 12 8 0 13-3 13-8 0-6-5-8-18-12-16-5-24-12-24-25 0-12 9-21 22-24V54z" fill="url(#gold)" />
</svg>
