<svg xmlns="http://www.w3.org/2000/svg" viewBox="0 0 512 512">
  <defs>
    <radialGradient id="glow" cx="50%" cy="22%" r="74%">
      <stop offset="0%" stop-color="#4a3610" />
      <stop offset="100%" stop-color="#070503" />
    </radialGradient>
    <linearGradient id="gold" x1="18%" y1="0%" x2="82%" y2="100%">
      <stop offset="0%" stop-color="#fff0a8" />
      <stop offset="46%" stop-color="#e4b447" />
      <stop offset="100%" stop-color="#8f5d13" />
    </linearGradient>
  </defs>
  <rect width="512" height="512" rx="120" fill="url(#glow)" />
  <path d="M256 62l144 48v112c0 104-58 181-144 224-86-43-144-120-144-224V110z" fill="none" stroke="url(#gold)" stroke-width="24" stroke-linejoin="round" />
  <path d="M270 142v32c35 6 59 28 59 59h-49c0-14-11-22-30-22-16 0-27 8-27 20 0 13 13 19 46 28 47 13 69 33 69 70 0 35-27 61-68 68v35h-41v-35c-43-8-72-35-72-75h49c0 22 17 33 44 33 22 0 36-9 36-23 0-15-13-22-49-32-42-12-64-32-64-67 0-32 23-56 59-64v-33z" fill="url(#gold)" />
</svg>
